<?xml version="1.0" encoding="UTF-8" standalone="no"?>
<svg
   xmlns:dc="http://purl.org/dc/elements/1.1/"
   xmlns:cc="http://creativecommons.org/ns#"
   xmlns:rdf="http://www.w3.org/1999/02/22-rdf-syntax-ns#"
   xmlns:svg="http://www.w3.org/2000/svg"
   xmlns="http://www.w3.org/2000/svg"
   xmlns:sodipodi="http://sodipodi.sourceforge.net/DTD/sodipodi-0.dtd"
   xmlns:inkscape="http://www.inkscape.org/namespaces/inkscape"
   viewBox="0 0 512 512"
   x="0px"
   y="0px"
   version="1.1"
   id="svg20"
   sodipodi:docname="houdoku_logo.svg"
   width="512"
   height="512"
   inkscape:version="1.0.1 (3bc2e813f5, 2020-09-07)"
   inkscape:export-xdpi="96"
   inkscape:export-ydpi="96">
  <metadata
     id="metadata26">
    <rdf:RDF>
      <cc:Work
         rdf:about="">
        <dc:format>image/svg+xml</dc:format>
        <dc:type
           rdf:resource="http://purl.org/dc/dcmitype/StillImage" />
        <dc:title></dc:title>
      </cc:Work>
    </rdf:RDF>
  </metadata>
  <defs
     id="defs24" />
  <sodipodi:namedview
     pagecolor="#ffffff"
     bordercolor="#666666"
     borderopacity="1"
     objecttolerance="10"
     gridtolerance="10"
     guidetolerance="10"
     inkscape:pageopacity="0"
     inkscape:pageshadow="2"
     inkscape:window-width="1920"
     inkscape:window-height="1027"
     id="namedview22"
     showgrid="false"
     inkscape:document-units="px"
     inkscape:zoom="1"
     inkscape:cx="23.248638"
     inkscape:cy="123.92081"
     inkscape:window-x="1912"
     inkscape:window-y="-8"
     inkscape:window-maximized="1"
     inkscape:current-layer="layer2" />
  <g
     inkscape:groupmode="layer"
     id="layer1"
     inkscape:label="BG"
     style="display:inline">
    <path
       style="fill:#ffb7c5;fill-opacity:1;stroke:none;stroke-width:1.06668px;stroke-linecap:butt;stroke-linejoin:miter;stroke-opacity:1"
       d="m 144.86666,134.54778 -47.231649,-8.73189 -40.881173,12.30404 -35.324512,34.92761 6.747379,25.40189 -18.6545169,11.11333 9.5257109,54.37593 29.767847,36.11833 51.994504,21.43285 -28.632715,45.93627 -5.613079,48.27248 23.574933,51.64032 25.820161,-5.61307 7.85831,26.94277 51.64033,5.61308 52.76294,-24.69755 30.87194,-33.11717 36.48501,44.34333 54.44687,14.0327 39.85287,-6.7357 6.73568,-25.82016 23.57494,3.92916 24.69755,-51.64033 -4.49046,-48.83379 -28.62671,-47.14987 62.86648,-29.74931 25.25886,-42.6594 2.80653,-39.85287 -20.76838,-8.98092 10.66484,-24.13624 -37.04631,-34.23979 -43.78202,-12.34877 -43.78202,6.17439 -16.27793,4.49047 -5.61308,-60.621261 -22.45232,-30.310627 -26.38146,-19.645777 -24.13625,-8.980926 -17.96184,14.594005 -20.7684,-14.594005 -34.23979,14.594005 -25.82016,28.626704 -14.0327,40.975482 -2.24522,35.3624 z"
       id="path851" />
  </g>
  <g
     inkscape:groupmode="layer"
     id="layer2"
     inkscape:label="FG"
     style="display:inline">
    <g
       id="g14"
       style="fill:#d55656;fill-opacity:1"
       transform="matrix(1.0666812,0,0,1.0666812,-17.071013,-17.069781)">
      <path
         d="M 16.47,211.271 A 102.381,102.381 0 0 0 86.748,318.4 q 5.3,1.721 10.718,3.108 -3.543,4.284 -6.842,8.823 a 102.379,102.379 0 0 0 6.115,127.979 8,8 0 0 0 7.246,2.6 l 15.039,-2.382 2.383,15.04 a 8,8 0 0 0 4.715,6.086 102.382,102.382 0 0 0 123.606,-33.724 Q 253,441.426 256,436.7 q 2.981,4.694 6.277,9.233 a 102.462,102.462 0 0 0 123.606,33.732 8,8 0 0 0 4.715,-6.086 l 2.383,-15.04 15.039,2.382 a 7.994,7.994 0 0 0 7.246,-2.6 102.383,102.383 0 0 0 6.115,-127.98 q -3.271,-4.5 -6.845,-8.813 5.385,-1.385 10.721,-3.117 a 102.381,102.381 0 0 0 70.273,-107.14 8,8 0 0 0 -4.332,-6.365 l -13.567,-6.913 6.913,-13.567 a 8,8 0 0 0 -0.237,-7.7 102.383,102.383 0 0 0 -119.828,-45.364 q -5.293,1.72 -10.5,3.786 0.348,-5.548 0.35,-11.159 a 102.383,102.383 0 0 0 -80.173,-99.944 8.006,8.006 0 0 0 -7.392,2.152 L 256,36.969 245.233,26.2 a 8.006,8.006 0 0 0 -7.392,-2.152 102.383,102.383 0 0 0 -80.173,99.944 c 0,3.711 0.12,7.436 0.357,11.154 q -5.169,-2.046 -10.5,-3.781 a 102.382,102.382 0 0 0 -119.832,45.365 8,8 0 0 0 -0.237,7.7 l 6.913,13.567 -13.569,6.909 a 8,8 0 0 0 -4.33,6.365 z M 236.784,436.525 A 86.379,86.379 0 0 1 136.5,466.607 l -2.926,-18.475 a 8,8 0 0 0 -9.153,-6.65 l -18.475,2.926 a 86.379,86.379 0 0 1 -2.38,-104.67 158.33,158.33 0 0 1 121.339,-65.415 l 16.616,-0.772 c 0.188,-0.009 0.376,-0.014 0.564,-0.016 l 0.261,0.085 a 31.5,31.5 0 0 0 -1.706,3.553 l -38.936,53.591 a 23.961,23.961 0 1 0 12.944,9.4 l 15.913,-21.9 a 173.764,173.764 0 0 0 16.379,102.378 159.88,159.88 0 0 1 -10.156,15.883 z M 248,165.645 a 8,8 0 1 1 8,8 8.009,8.009 0 0 1 -8,-8 z m -46.658,192.839 a 8,8 0 1 1 1.43,-5.954 8.011,8.011 0 0 1 -1.43,5.954 z m 207.09,-18.745 a 86.377,86.377 0 0 1 -2.38,104.669 l -18.475,-2.926 a 8,8 0 0 0 -9.153,6.65 L 375.5,466.607 A 86.379,86.379 0 0 1 275.218,436.525 158.327,158.327 0 0 1 250.5,300.911 l 4.4,-16.043 c 0.015,-0.054 0.031,-0.107 0.046,-0.161 l 0.366,-0.5 a 31.472,31.472 0 0 0 4.009,3.621 l 38.03,52.342 a 23.97,23.97 0 1 0 12.944,-9.4 l -15.441,-21.253 a 173.8,173.8 0 0 0 101.613,15.653 159.838,159.838 0 0 1 11.965,14.569 z m -84.83,9.34 a 8,8 0 1 1 -5.221,-3.2 8.011,8.011 0 0 1 5.219,3.2 z m 45.822,-202.5 a 86.376,86.376 0 0 1 98.811,34.607 l -8.492,16.667 a 8,8 0 0 0 3.5,10.76 l 16.667,8.492 a 86.379,86.379 0 0 1 -59.6,86.079 158.338,158.338 0 0 1 -136.615,-18.4 l -13.029,-8.572 -0.983,-1.353 a 31.374,31.374 0 0 0 4.653,-2.765 l 61.527,-19.992 a 23.987,23.987 0 0 0 26.465,8.225 v 0 a 24,24 0 1 0 -31.411,-23.441 l -25.146,8.171 a 173.771,173.771 0 0 0 46.1,-91.6 159.936,159.936 0 0 1 17.553,-6.874 z M 352.438,229.9 a 8,8 0 1 1 -5.137,10.081 7.987,7.987 0 0 1 5.137,-10.081 z M 173.668,124 a 86.38,86.38 0 0 1 63.448,-83.281 l 13.227,13.227 a 8,8 0 0 0 11.314,0 L 274.884,40.719 A 86.38,86.38 0 0 1 338.332,124 158.33,158.33 0 0 1 278.617,248.243 l -11.886,9.51 -1.9,0.618 a 31.362,31.362 0 0 0 -0.829,-3.992 v -66.1 a 24,24 0 1 0 -16,0 v 27.336 a 173.769,173.769 0 0 0 -73.215,-72.8 159.877,159.877 0 0 1 -1.119,-18.822 z m -141.574,93.109 16.667,-8.492 a 8,8 0 0 0 3.5,-10.76 L 43.765,181.19 a 86.376,86.376 0 0 1 98.811,-34.607 158.332,158.332 0 0 1 99.709,95.185 L 248,256.923 v 1.15 q -1.487,-0.279 -3,-0.414 l -63.918,-20.768 a 24.044,24.044 0 0 0 -16.577,-22.21 v 0 a 24,24 0 1 0 11.633,37.426 l 26.38,8.572 a 173.772,173.772 0 0 0 -92.583,47.262 160.069,160.069 0 0 1 -18.244,-4.753 86.379,86.379 0 0 1 -59.6,-86.079 z M 164.7,239.978 a 8,8 0 1 1 -5.137,-10.081 8.011,8.011 0 0 1 5.137,10.081 z"
         id="path2"
         style="fill:#d55656;fill-opacity:1" />
      <rect
         x="195.81599"
         y="280.39899"
         width="32"
         height="16.000999"
         transform="rotate(-23,211.81943,288.40194)"
         id="rect4"
         style="fill:#d55656;fill-opacity:1" />
      <rect
         x="252.183"
         y="301.46201"
         width="16"
         height="32"
         transform="rotate(-5,260.18872,317.46728)"
         id="rect6"
         style="fill:#d55656;fill-opacity:1" />
      <rect
         x="294.76999"
         y="264.44199"
         width="16"
         height="32"
         transform="rotate(-77,302.77256,280.44227)"
         id="rect8"
         style="fill:#d55656;fill-opacity:1" />
      <rect
         x="216.509"
         y="217.418"
         width="16.000999"
         height="32"
         transform="rotate(-41.001,224.50797,233.41673)"
         id="rect10"
         style="fill:#d55656;fill-opacity:1" />
      <rect
         x="264.72198"
         y="220.5"
         width="32"
         height="16"
         transform="rotate(-59.001,280.72026,228.50006)"
         id="rect12"
         style="fill:#d55656;fill-opacity:1" />
    </g>
  </g>
</svg>
