<?xml version="1.0" encoding="UTF-8" standalone="no"?>
<!-- Created with Inkscape (http://www.inkscape.org/) -->

<svg
   xmlns:dc="http://purl.org/dc/elements/1.1/"
   xmlns:cc="http://creativecommons.org/ns#"
   xmlns:rdf="http://www.w3.org/1999/02/22-rdf-syntax-ns#"
   xmlns:svg="http://www.w3.org/2000/svg"
   xmlns="http://www.w3.org/2000/svg"
   xmlns:sodipodi="http://sodipodi.sourceforge.net/DTD/sodipodi-0.dtd"
   xmlns:inkscape="http://www.inkscape.org/namespaces/inkscape"
   width="540"
   height="100"
   viewBox="0 0 142.87499 26.458334"
   version="1.1"
   id="svg1771"
   inkscape:version="0.92.2 2405546, 2018-03-11"
   sodipodi:docname="houdoku_header.svg">
  <defs
     id="defs1765" />
  <sodipodi:namedview
     id="base"
     pagecolor="#ffffff"
     bordercolor="#666666"
     borderopacity="1.0"
     inkscape:pageopacity="0.0"
     inkscape:pageshadow="2"
     inkscape:zoom="1.979899"
     inkscape:cx="256.47187"
     inkscape:cy="-6.5814786"
     inkscape:document-units="mm"
     inkscape:current-layer="layer1"
     showgrid="false"
     units="px"
     inkscape:window-width="2538"
     inkscape:window-height="1392"
     inkscape:window-x="10"
     inkscape:window-y="36"
     inkscape:window-maximized="0" />
  <metadata
     id="metadata1768">
    <rdf:RDF>
      <cc:Work
         rdf:about="">
        <dc:format>image/svg+xml</dc:format>
        <dc:type
           rdf:resource="http://purl.org/dc/dcmitype/StillImage" />
        <dc:title></dc:title>
      </cc:Work>
    </rdf:RDF>
  </metadata>
  <g
     inkscape:label="Layer 1"
     inkscape:groupmode="layer"
     id="layer1"
     transform="translate(0,-270.54165)">
    <g
       id="g2568"
       transform="translate(-3.0594204)">
      <g
         transform="matrix(1.082381,0,0,1.082381,1.5635114,-842.33838)"
         id="g884">
        <path
           inkscape:connector-curvature="0"
           d="m 3,8 v 2 1 3 1 5 1 c 0,1.105 0.8954,2 2,2 h 14 c 1.105,0 2,-0.895 2,-2 V 20 15 11 8 Z"
           transform="translate(0,1028.4)"
           id="path872"
           style="fill:#de3c21;fill-opacity:1" />
        <path
           style="fill:#ecf0f1"
           inkscape:connector-curvature="0"
           d="m 3,1035.4 v 2 1 3 1 5 1 c 0,1.1 0.8954,2 2,2 h 14 c 1.105,0 2,-0.9 2,-2 v -1 -5 -4 -3 z"
           id="path874" />
        <path
           style="fill:#bdc3c7"
           inkscape:connector-curvature="0"
           d="m 3,1034.4 v 2 1 3 1 5 1 c 0,1.1 0.8954,2 2,2 h 14 c 1.105,0 2,-0.9 2,-2 v -1 -5 -4 -3 z"
           id="path876" />
        <path
           style="fill:#ecf0f1"
           inkscape:connector-curvature="0"
           d="m 3,1033.4 v 2 1 3 1 5 1 c 0,1.1 0.8954,2 2,2 h 14 c 1.105,0 2,-0.9 2,-2 v -1 -5 -4 -3 z"
           id="path878" />
        <path
           inkscape:connector-curvature="0"
           d="M 5,1 C 3.8954,1 3,1.8954 3,3 v 1 4 2 1 3 1 5 1 c 0,1.105 0.8954,2 2,2 H 7 V 22 H 5.5 C 4.6716,22 4,21.328 4,20.5 4,19.672 4.6716,19 5.5,19 H 18 19 c 1.105,0 2,-0.895 2,-2 V 16 11 7 4 3 C 21,1.8954 20.105,1 19,1 h -4 z"
           transform="translate(0,1028.4)"
           id="path880"
           style="fill:#de3c21;fill-opacity:1" />
        <path
           inkscape:connector-curvature="0"
           d="m 8,1 v 18 h 1 9 1 c 1.105,0 2,-0.895 2,-2 V 16 11 7 4 3 C 21,1.8954 20.105,1 19,1 H 15 9 Z"
           id="path882"
           style="fill:#e25838;fill-opacity:1"
           transform="translate(0,1028.4)" />
      </g>
      <flowRoot
         transform="matrix(0.59294071,0,0,0.59294071,-37.121444,260.83829)"
         style="font-style:normal;font-variant:normal;font-weight:normal;font-stretch:normal;font-size:40px;line-height:1.25;font-family:'Ikaros Sans';-inkscape-font-specification:'Ikaros Sans, Normal';font-variant-ligatures:normal;font-variant-caps:normal;font-variant-numeric:normal;font-feature-settings:normal;text-align:start;letter-spacing:0px;word-spacing:0px;writing-mode:lr-tb;text-anchor:start;fill:#000000;fill-opacity:1;stroke:none"
         id="flowRoot2549"
         xml:space="preserve"><flowRegion
           style="font-style:normal;font-variant:normal;font-weight:normal;font-stretch:normal;font-size:40px;font-family:'Ikaros Sans';-inkscape-font-specification:'Ikaros Sans, Normal';font-variant-ligatures:normal;font-variant-caps:normal;font-variant-numeric:normal;font-feature-settings:normal;text-align:start;letter-spacing:0px;writing-mode:lr-tb;text-anchor:start"
           id="flowRegion2551"><rect
             style="font-style:normal;font-variant:normal;font-weight:normal;font-stretch:normal;font-size:40px;font-family:'Ikaros Sans';-inkscape-font-specification:'Ikaros Sans, Normal';font-variant-ligatures:normal;font-variant-caps:normal;font-variant-numeric:normal;font-feature-settings:normal;text-align:start;letter-spacing:0px;writing-mode:lr-tb;text-anchor:start"
             y="12.142857"
             x="105.71429"
             height="70.35714"
             width="353.57144"
             id="rect2553" /></flowRegion><flowPara
           style="font-style:normal;font-variant:normal;font-weight:normal;font-stretch:normal;font-size:53.33333588px;font-family:'Ikaros Sans';-inkscape-font-specification:'Ikaros Sans, Normal';font-variant-ligatures:normal;font-variant-caps:normal;font-variant-numeric:normal;font-feature-settings:normal;text-align:start;letter-spacing:0px;writing-mode:lr-tb;text-anchor:start;fill:#4d4d4d"
           id="flowPara2555">Houdoku</flowPara></flowRoot>    </g>
  </g>
</svg>
