<?xml version="1.0" encoding="UTF-8" standalone="no"?>
<svg
   xmlns:dc="http://purl.org/dc/elements/1.1/"
   xmlns:cc="http://creativecommons.org/ns#"
   xmlns:rdf="http://www.w3.org/1999/02/22-rdf-syntax-ns#"
   xmlns:svg="http://www.w3.org/2000/svg"
   xmlns="http://www.w3.org/2000/svg"
   xmlns:sodipodi="http://sodipodi.sourceforge.net/DTD/sodipodi-0.dtd"
   xmlns:inkscape="http://www.inkscape.org/namespaces/inkscape"
   height="24"
   version="1.1"
   width="24"
   id="svg886"
   sodipodi:docname="houdoku_icon.svg"
   inkscape:version="0.92.2 2405546, 2018-03-11"
   inkscape:export-filename="/home/jake/projects/houdoku/res/houdoku_icon.png"
   inkscape:export-xdpi="1024"
   inkscape:export-ydpi="1024">
  <metadata
     id="metadata892">
    <rdf:RDF>
      <cc:Work
         rdf:about="">
        <dc:format>image/svg+xml</dc:format>
        <dc:type
           rdf:resource="http://purl.org/dc/dcmitype/StillImage" />
        <dc:title></dc:title>
      </cc:Work>
    </rdf:RDF>
  </metadata>
  <defs
     id="defs890" />
  <sodipodi:namedview
     pagecolor="#ffffff"
     bordercolor="#666666"
     borderopacity="1"
     objecttolerance="10"
     gridtolerance="10"
     guidetolerance="10"
     inkscape:pageopacity="0"
     inkscape:pageshadow="2"
     inkscape:window-width="1263"
     inkscape:window-height="1392"
     id="namedview888"
     showgrid="false"
     inkscape:zoom="12.46875"
     inkscape:cx="12.06636"
     inkscape:cy="8.8469308"
     inkscape:window-x="10"
     inkscape:window-y="36"
     inkscape:window-maximized="0"
     inkscape:current-layer="g884" />
  <g
     transform="translate(0 -1028.4)"
     id="g884">
    <path
       d="m3 8v2 1 3 1 5 1c0 1.105 0.8954 2 2 2h14c1.105 0 2-0.895 2-2v-1-5-4-3h-18z"
       fill="#16a085"
       transform="translate(0 1028.4)"
       id="path872"
       style="fill:#de3c21;fill-opacity:1" />
    <path
       d="m3 1035.4v2 1 3 1 5 1c0 1.1 0.8954 2 2 2h14c1.105 0 2-0.9 2-2v-1-5-4-3h-18z"
       fill="#ecf0f1"
       id="path874" />
    <path
       d="m3 1034.4v2 1 3 1 5 1c0 1.1 0.8954 2 2 2h14c1.105 0 2-0.9 2-2v-1-5-4-3h-18z"
       fill="#bdc3c7"
       id="path876" />
    <path
       d="m3 1033.4v2 1 3 1 5 1c0 1.1 0.8954 2 2 2h14c1.105 0 2-0.9 2-2v-1-5-4-3h-18z"
       fill="#ecf0f1"
       id="path878" />
    <path
       d="m5 1c-1.1046 0-2 0.8954-2 2v1 4 2 1 3 1 5 1c0 1.105 0.8954 2 2 2h2v-1h-1.5c-0.8284 0-1.5-0.672-1.5-1.5s0.6716-1.5 1.5-1.5h12.5 1c1.105 0 2-0.895 2-2v-1-5-4-3-1c0-1.1046-0.895-2-2-2h-4-10z"
       fill="#16a085"
       transform="translate(0 1028.4)"
       id="path880"
       style="fill:#de3c21;fill-opacity:1" />
    <path
       d="m8 1v18h1 9 1c1.105 0 2-0.895 2-2v-1-5-4-3-1c0-1.1046-0.895-2-2-2h-4-6-1z"
       id="path882"
       style="fill:#e25838;fill-opacity:1"
       fill="#1abc9c"
       transform="translate(0 1028.4)" />
  </g>
</svg>
